  0
SECTION
  2
BLOCKS
  0
ENDSEC
  0
SECTION
  2
ENTITIES
  0
LINE
  8
0
 10
30.8906
 20
20.1836
 11
29.8936
 21
20.1836
  0
LINE
  8
0
 10
29.8936
 20
20.1836
 11
29.8936
 21
19.1865
  0
LINE
  8
0
 10
29.8936
 20
19.1865
 11
30.8906
 21
19.1865
  0
LINE
  8
0
 10
30.8906
 20
19.1865
 11
30.8906
 21
20.1836
  0
LINE
  8
0
 10
32.5908
 20
20.1836
 11
31.5938
 21
20.1836
  0
LINE
  8
0
 10
31.5938
 20
20.1836
 11
31.5938
 21
19.1865
  0
LINE
  8
0
 10
31.5938
 20
19.1865
 11
32.5908
 21
19.1865
  0
LINE
  8
0
 10
32.5908
 20
19.1865
 11
32.5908
 21
20.1836
  0
LINE
  8
0
 10
2.93848
 20
19.4551
 11
2.1416
 21
19.4551
  0
LINE
  8
0
 10
2.1416
 20
19.4551
 11
2.1416
 21
18.5586
  0
LINE
  8
0
 10
2.1416
 20
18.5586
 11
2.93848
 21
18.5586
  0
LINE
  8
0
 10
2.93848
 20
18.5586
 11
2.93848
 21
19.4551
  0
LINE
  8
0
 10
19.7295
 20
19.4004
 11
19.1328
 21
19.4004
  0
LINE
  8
0
 10
19.1328
 20
19.4004
 11
19.1328
 21
18.2031
  0
LINE
  8
0
 10
19.1328
 20
18.2031
 11
19.7295
 21
18.2031
  0
LINE
  8
0
 10
19.7295
 20
18.2031
 11
19.7295
 21
19.4004
  0
LINE
  8
0
 10
28.6191
 20
19.4004
 11
28.0225
 21
19.4004
  0
LINE
  8
0
 10
28.0225
 20
19.4004
 11
28.0225
 21
18.2031
  0
LINE
  8
0
 10
28.0225
 20
18.2031
 11
28.6191
 21
18.2031
  0
LINE
  8
0
 10
28.6191
 20
18.2031
 11
28.6191
 21
19.4004
  0
LINE
  8
0
 10
27.3496
 20
19.4004
 11
26.7529
 21
19.4004
  0
LINE
  8
0
 10
26.7529
 20
19.4004
 11
26.7529
 21
18.2031
  0
LINE
  8
0
 10
26.7529
 20
18.2031
 11
27.3496
 21
18.2031
  0
LINE
  8
0
 10
27.3496
 20
18.2031
 11
27.3496
 21
19.4004
  0
LINE
  8
0
 10
26.0791
 20
19.4004
 11
25.4824
 21
19.4004
  0
LINE
  8
0
 10
25.4824
 20
19.4004
 11
25.4824
 21
18.2031
  0
LINE
  8
0
 10
25.4824
 20
18.2031
 11
26.0791
 21
18.2031
  0
LINE
  8
0
 10
26.0791
 20
18.2031
 11
26.0791
 21
19.4004
  0
LINE
  8
0
 10
17.3164
 20
19.4004
 11
16.7197
 21
19.4004
  0
LINE
  8
0
 10
16.7197
 20
19.4004
 11
16.7197
 21
18.2031
  0
LINE
  8
0
 10
16.7197
 20
18.2031
 11
17.3164
 21
18.2031
  0
LINE
  8
0
 10
17.3164
 20
18.2031
 11
17.3164
 21
19.4004
  0
LINE
  8
0
 10
16.0469
 20
19.4004
 11
15.4492
 21
19.4004
  0
LINE
  8
0
 10
15.4492
 20
19.4004
 11
15.4492
 21
18.2031
  0
LINE
  8
0
 10
15.4492
 20
18.2031
 11
16.0469
 21
18.2031
  0
LINE
  8
0
 10
16.0469
 20
18.2031
 11
16.0469
 21
19.4004
  0
LINE
  8
0
 10
14.7764
 20
19.4004
 11
14.1797
 21
19.4004
  0
LINE
  8
0
 10
14.1797
 20
19.4004
 11
14.1797
 21
18.2031
  0
LINE
  8
0
 10
14.1797
 20
18.2031
 11
14.7764
 21
18.2031
  0
LINE
  8
0
 10
14.7764
 20
18.2031
 11
14.7764
 21
19.4004
  0
LINE
  8
0
 10
13.5068
 20
19.4004
 11
12.9092
 21
19.4004
  0
LINE
  8
0
 10
12.9092
 20
19.4004
 11
12.9092
 21
18.2031
  0
LINE
  8
0
 10
12.9092
 20
18.2031
 11
13.5068
 21
18.2031
  0
LINE
  8
0
 10
13.5068
 20
18.2031
 11
13.5068
 21
19.4004
  0
LINE
  8
0
 10
12.2363
 20
19.4004
 11
11.6396
 21
19.4004
  0
LINE
  8
0
 10
11.6396
 20
19.4004
 11
11.6396
 21
18.2031
  0
LINE
  8
0
 10
11.6396
 20
18.2031
 11
12.2363
 21
18.2031
  0
LINE
  8
0
 10
12.2363
 20
18.2031
 11
12.2363
 21
19.4004
  0
LINE
  8
0
 10
10.9668
 20
19.4004
 11
10.3691
 21
19.4004
  0
LINE
  8
0
 10
10.3691
 20
19.4004
 11
10.3691
 21
18.2031
  0
LINE
  8
0
 10
10.3691
 20
18.2031
 11
10.9668
 21
18.2031
  0
LINE
  8
0
 10
10.9668
 20
18.2031
 11
10.9668
 21
19.4004
  0
LINE
  8
0
 10
9.69629
 20
19.4004
 11
9.09961
 21
19.4004
  0
LINE
  8
0
 10
9.09961
 20
19.4004
 11
9.09961
 21
18.2031
  0
LINE
  8
0
 10
9.09961
 20
18.2031
 11
9.69629
 21
18.2031
  0
LINE
  8
0
 10
9.69629
 20
18.2031
 11
9.69629
 21
19.4004
  0
LINE
  8
0
 10
8.42676
 20
19.4004
 11
7.8291
 21
19.4004
  0
LINE
  8
0
 10
7.8291
 20
19.4004
 11
7.8291
 21
18.2031
  0
LINE
  8
0
 10
7.8291
 20
18.2031
 11
8.42676
 21
18.2031
  0
LINE
  8
0
 10
8.42676
 20
18.2031
 11
8.42676
 21
19.4004
  0
LINE
  8
0
 10
24.8096
 20
19.4004
 11
24.2129
 21
19.4004
  0
LINE
  8
0
 10
24.2129
 20
19.4004
 11
24.2129
 21
18.2031
  0
LINE
  8
0
 10
24.2129
 20
18.2031
 11
24.8096
 21
18.2031
  0
LINE
  8
0
 10
24.8096
 20
18.2031
 11
24.8096
 21
19.4004
  0
LINE
  8
0
 10
23.5391
 20
19.4004
 11
22.9424
 21
19.4004
  0
LINE
  8
0
 10
22.9424
 20
19.4004
 11
22.9424
 21
18.2031
  0
LINE
  8
0
 10
22.9424
 20
18.2031
 11
23.5391
 21
18.2031
  0
LINE
  8
0
 10
23.5391
 20
18.2031
 11
23.5391
 21
19.4004
  0
LINE
  8
0
 10
22.2695
 20
19.4004
 11
21.6729
 21
19.4004
  0
LINE
  8
0
 10
21.6729
 20
19.4004
 11
21.6729
 21
18.2031
  0
LINE
  8
0
 10
21.6729
 20
18.2031
 11
22.2695
 21
18.2031
  0
LINE
  8
0
 10
22.2695
 20
18.2031
 11
22.2695
 21
19.4004
  0
LINE
  8
0
 10
20.999
 20
19.4004
 11
20.4023
 21
19.4004
  0
LINE
  8
0
 10
20.4023
 20
19.4004
 11
20.4023
 21
18.2031
  0
LINE
  8
0
 10
20.4023
 20
18.2031
 11
20.999
 21
18.2031
  0
LINE
  8
0
 10
20.999
 20
18.2031
 11
20.999
 21
19.4004
  0
LINE
  8
0
 10
6.08691
 20
19.3828
 11
5.08984
 21
19.3828
  0
LINE
  8
0
 10
5.08984
 20
19.3828
 11
5.08984
 21
18.3857
  0
LINE
  8
0
 10
5.08984
 20
18.3857
 11
6.08691
 21
18.3857
  0
LINE
  8
0
 10
6.08691
 20
18.3857
 11
6.08691
 21
19.3828
  0
LINE
  8
0
 10
31.2324
 20
18.4932
 11
30.2354
 21
18.4932
  0
LINE
  8
0
 10
30.2354
 20
18.4932
 11
30.2354
 21
17.4961
  0
LINE
  8
0
 10
30.2354
 20
17.4961
 11
31.2324
 21
17.4961
  0
LINE
  8
0
 10
31.2324
 20
17.4961
 11
31.2324
 21
18.4932
  0
LINE
  8
0
 10
6.08691
 20
17.6826
 11
5.08984
 21
17.6826
  0
LINE
  8
0
 10
5.08984
 20
17.6826
 11
5.08984
 21
16.6855
  0
LINE
  8
0
 10
5.08984
 20
16.6855
 11
6.08691
 21
16.6855
  0
LINE
  8
0
 10
6.08691
 20
16.6855
 11
6.08691
 21
17.6826
  0
LINE
  8
0
 10
3.88867
 20
17.3555
 11
3.0918
 21
17.3555
  0
LINE
  8
0
 10
3.0918
 20
17.3555
 11
3.0918
 21
16.459
  0
LINE
  8
0
 10
3.0918
 20
16.459
 11
3.88867
 21
16.459
  0
LINE
  8
0
 10
3.88867
 20
16.459
 11
3.88867
 21
17.3555
  0
LINE
  8
0
 10
1.98828
 20
17.3555
 11
1.19141
 21
17.3555
  0
LINE
  8
0
 10
1.19141
 20
17.3555
 11
1.19141
 21
16.459
  0
LINE
  8
0
 10
1.19141
 20
16.459
 11
1.98828
 21
16.459
  0
LINE
  8
0
 10
1.98828
 20
16.459
 11
1.98828
 21
17.3555
  0
LINE
  8
0
 10
31.2324
 20
16.793
 11
30.2354
 21
16.793
  0
LINE
  8
0
 10
30.2354
 20
16.793
 11
30.2354
 21
15.7969
  0
LINE
  8
0
 10
30.2354
 20
15.7969
 11
31.2324
 21
15.7969
  0
LINE
  8
0
 10
31.2324
 20
15.7969
 11
31.2324
 21
16.793
  0
LINE
  8
0
 10
31.2324
 20
15.4453
 11
30.2354
 21
15.4453
  0
LINE
  8
0
 10
30.2354
 20
15.4453
 11
30.2354
 21
14.4482
  0
LINE
  8
0
 10
30.2354
 20
14.4482
 11
31.2324
 21
14.4482
  0
LINE
  8
0
 10
31.2324
 20
14.4482
 11
31.2324
 21
15.4453
  0
LINE
  8
0
 10
8.42676
 20
13.8008
 11
7.8291
 21
13.8008
  0
LINE
  8
0
 10
7.8291
 20
13.8008
 11
7.8291
 21
12.6035
  0
LINE
  8
0
 10
7.8291
 20
12.6035
 11
8.42676
 21
12.6035
  0
LINE
  8
0
 10
8.42676
 20
12.6035
 11
8.42676
 21
13.8008
  0
LINE
  8
0
 10
28.6191
 20
13.8008
 11
28.0225
 21
13.8008
  0
LINE
  8
0
 10
28.0225
 20
13.8008
 11
28.0225
 21
12.6035
  0
LINE
  8
0
 10
28.0225
 20
12.6035
 11
28.6191
 21
12.6035
  0
LINE
  8
0
 10
28.6191
 20
12.6035
 11
28.6191
 21
13.8008
  0
LINE
  8
0
 10
27.3496
 20
13.8008
 11
26.7529
 21
13.8008
  0
LINE
  8
0
 10
26.7529
 20
13.8008
 11
26.7529
 21
12.6035
  0
LINE
  8
0
 10
26.7529
 20
12.6035
 11
27.3496
 21
12.6035
  0
LINE
  8
0
 10
27.3496
 20
12.6035
 11
27.3496
 21
13.8008
  0
LINE
  8
0
 10
26.0791
 20
13.8008
 11
25.4824
 21
13.8008
  0
LINE
  8
0
 10
25.4824
 20
13.8008
 11
25.4824
 21
12.6035
  0
LINE
  8
0
 10
25.4824
 20
12.6035
 11
26.0791
 21
12.6035
  0
LINE
  8
0
 10
26.0791
 20
12.6035
 11
26.0791
 21
13.8008
  0
LINE
  8
0
 10
24.8096
 20
13.8008
 11
24.2129
 21
13.8008
  0
LINE
  8
0
 10
24.2129
 20
13.8008
 11
24.2129
 21
12.6035
  0
LINE
  8
0
 10
24.2129
 20
12.6035
 11
24.8096
 21
12.6035
  0
LINE
  8
0
 10
24.8096
 20
12.6035
 11
24.8096
 21
13.8008
  0
LINE
  8
0
 10
23.5391
 20
13.8008
 11
22.9424
 21
13.8008
  0
LINE
  8
0
 10
22.9424
 20
13.8008
 11
22.9424
 21
12.6035
  0
LINE
  8
0
 10
22.9424
 20
12.6035
 11
23.5391
 21
12.6035
  0
LINE
  8
0
 10
23.5391
 20
12.6035
 11
23.5391
 21
13.8008
  0
LINE
  8
0
 10
22.2695
 20
13.8008
 11
21.6729
 21
13.8008
  0
LINE
  8
0
 10
21.6729
 20
13.8008
 11
21.6729
 21
12.6035
  0
LINE
  8
0
 10
21.6729
 20
12.6035
 11
22.2695
 21
12.6035
  0
LINE
  8
0
 10
22.2695
 20
12.6035
 11
22.2695
 21
13.8008
  0
LINE
  8
0
 10
20.999
 20
13.8008
 11
20.4023
 21
13.8008
  0
LINE
  8
0
 10
20.4023
 20
13.8008
 11
20.4023
 21
12.6035
  0
LINE
  8
0
 10
20.4023
 20
12.6035
 11
20.999
 21
12.6035
  0
LINE
  8
0
 10
20.999
 20
12.6035
 11
20.999
 21
13.8008
  0
LINE
  8
0
 10
19.7295
 20
13.8008
 11
19.1328
 21
13.8008
  0
LINE
  8
0
 10
19.1328
 20
13.8008
 11
19.1328
 21
12.6035
  0
LINE
  8
0
 10
19.1328
 20
12.6035
 11
19.7295
 21
12.6035
  0
LINE
  8
0
 10
19.7295
 20
12.6035
 11
19.7295
 21
13.8008
  0
LINE
  8
0
 10
9.69629
 20
13.8008
 11
9.09961
 21
13.8008
  0
LINE
  8
0
 10
9.09961
 20
13.8008
 11
9.09961
 21
12.6035
  0
LINE
  8
0
 10
9.09961
 20
12.6035
 11
9.69629
 21
12.6035
  0
LINE
  8
0
 10
9.69629
 20
12.6035
 11
9.69629
 21
13.8008
  0
LINE
  8
0
 10
10.9668
 20
13.8008
 11
10.3691
 21
13.8008
  0
LINE
  8
0
 10
10.3691
 20
13.8008
 11
10.3691
 21
12.6035
  0
LINE
  8
0
 10
10.3691
 20
12.6035
 11
10.9668
 21
12.6035
  0
LINE
  8
0
 10
10.9668
 20
12.6035
 11
10.9668
 21
13.8008
  0
LINE
  8
0
 10
17.3164
 20
13.8008
 11
16.7197
 21
13.8008
  0
LINE
  8
0
 10
16.7197
 20
13.8008
 11
16.7197
 21
12.6035
  0
LINE
  8
0
 10
16.7197
 20
12.6035
 11
17.3164
 21
12.6035
  0
LINE
  8
0
 10
17.3164
 20
12.6035
 11
17.3164
 21
13.8008
  0
LINE
  8
0
 10
16.0469
 20
13.8008
 11
15.4492
 21
13.8008
  0
LINE
  8
0
 10
15.4492
 20
13.8008
 11
15.4492
 21
12.6035
  0
LINE
  8
0
 10
15.4492
 20
12.6035
 11
16.0469
 21
12.6035
  0
LINE
  8
0
 10
16.0469
 20
12.6035
 11
16.0469
 21
13.8008
  0
LINE
  8
0
 10
14.7764
 20
13.8008
 11
14.1797
 21
13.8008
  0
LINE
  8
0
 10
14.1797
 20
13.8008
 11
14.1797
 21
12.6035
  0
LINE
  8
0
 10
14.1797
 20
12.6035
 11
14.7764
 21
12.6035
  0
LINE
  8
0
 10
14.7764
 20
12.6035
 11
14.7764
 21
13.8008
  0
LINE
  8
0
 10
13.5068
 20
13.8008
 11
12.9092
 21
13.8008
  0
LINE
  8
0
 10
12.9092
 20
13.8008
 11
12.9092
 21
12.6035
  0
LINE
  8
0
 10
12.9092
 20
12.6035
 11
13.5068
 21
12.6035
  0
LINE
  8
0
 10
13.5068
 20
12.6035
 11
13.5068
 21
13.8008
  0
LINE
  8
0
 10
12.2363
 20
13.8008
 11
11.6396
 21
13.8008
  0
LINE
  8
0
 10
11.6396
 20
13.8008
 11
11.6396
 21
12.6035
  0
LINE
  8
0
 10
11.6396
 20
12.6035
 11
12.2363
 21
12.6035
  0
LINE
  8
0
 10
12.2363
 20
12.6035
 11
12.2363
 21
13.8008
  0
LINE
  8
0
 10
31.2324
 20
13.7451
 11
30.2354
 21
13.7451
  0
LINE
  8
0
 10
30.2354
 20
13.7451
 11
30.2354
 21
12.749
  0
LINE
  8
0
 10
30.2354
 20
12.749
 11
31.2324
 21
12.749
  0
LINE
  8
0
 10
31.2324
 20
12.749
 11
31.2324
 21
13.7451
  0
LINE
  8
0
 10
24.8096
 20
11.6533
 11
24.2129
 21
11.6533
  0
LINE
  8
0
 10
24.2129
 20
11.6533
 11
24.2129
 21
10.457
  0
LINE
  8
0
 10
24.2129
 20
10.457
 11
24.8096
 21
10.457
  0
LINE
  8
0
 10
24.8096
 20
10.457
 11
24.8096
 21
11.6533
  0
LINE
  8
0
 10
19.7295
 20
11.6533
 11
19.1328
 21
11.6533
  0
LINE
  8
0
 10
19.1328
 20
11.6533
 11
19.1328
 21
10.457
  0
LINE
  8
0
 10
19.1328
 20
10.457
 11
19.7295
 21
10.457
  0
LINE
  8
0
 10
19.7295
 20
10.457
 11
19.7295
 21
11.6533
  0
LINE
  8
0
 10
20.999
 20
11.6533
 11
20.4023
 21
11.6533
  0
LINE
  8
0
 10
20.4023
 20
11.6533
 11
20.4023
 21
10.457
  0
LINE
  8
0
 10
20.4023
 20
10.457
 11
20.999
 21
10.457
  0
LINE
  8
0
 10
20.999
 20
10.457
 11
20.999
 21
11.6533
  0
LINE
  8
0
 10
22.2695
 20
11.6533
 11
21.6729
 21
11.6533
  0
LINE
  8
0
 10
21.6729
 20
11.6533
 11
21.6729
 21
10.457
  0
LINE
  8
0
 10
21.6729
 20
10.457
 11
22.2695
 21
10.457
  0
LINE
  8
0
 10
22.2695
 20
10.457
 11
22.2695
 21
11.6533
  0
LINE
  8
0
 10
23.5391
 20
11.6533
 11
22.9424
 21
11.6533
  0
LINE
  8
0
 10
22.9424
 20
11.6533
 11
22.9424
 21
10.457
  0
LINE
  8
0
 10
22.9424
 20
10.457
 11
23.5391
 21
10.457
  0
LINE
  8
0
 10
23.5391
 20
10.457
 11
23.5391
 21
11.6533
  0
LINE
  8
0
 10
26.0791
 20
11.6533
 11
25.4824
 21
11.6533
  0
LINE
  8
0
 10
25.4824
 20
11.6533
 11
25.4824
 21
10.457
  0
LINE
  8
0
 10
25.4824
 20
10.457
 11
26.0791
 21
10.457
  0
LINE
  8
0
 10
26.0791
 20
10.457
 11
26.0791
 21
11.6533
  0
LINE
  8
0
 10
27.3496
 20
11.6533
 11
26.7529
 21
11.6533
  0
LINE
  8
0
 10
26.7529
 20
11.6533
 11
26.7529
 21
10.457
  0
LINE
  8
0
 10
26.7529
 20
10.457
 11
27.3496
 21
10.457
  0
LINE
  8
0
 10
27.3496
 20
10.457
 11
27.3496
 21
11.6533
  0
LINE
  8
0
 10
28.6191
 20
11.6533
 11
28.0225
 21
11.6533
  0
LINE
  8
0
 10
28.0225
 20
11.6533
 11
28.0225
 21
10.457
  0
LINE
  8
0
 10
28.0225
 20
10.457
 11
28.6191
 21
10.457
  0
LINE
  8
0
 10
28.6191
 20
10.457
 11
28.6191
 21
11.6533
  0
LINE
  8
0
 10
16.0469
 20
11.6533
 11
15.4492
 21
11.6533
  0
LINE
  8
0
 10
15.4492
 20
11.6533
 11
15.4492
 21
10.457
  0
LINE
  8
0
 10
15.4492
 20
10.457
 11
16.0469
 21
10.457
  0
LINE
  8
0
 10
16.0469
 20
10.457
 11
16.0469
 21
11.6533
  0
LINE
  8
0
 10
14.7764
 20
11.6533
 11
14.1797
 21
11.6533
  0
LINE
  8
0
 10
14.1797
 20
11.6533
 11
14.1797
 21
10.457
  0
LINE
  8
0
 10
14.1797
 20
10.457
 11
14.7764
 21
10.457
  0
LINE
  8
0
 10
14.7764
 20
10.457
 11
14.7764
 21
11.6533
  0
LINE
  8
0
 10
17.3164
 20
11.6533
 11
16.7197
 21
11.6533
  0
LINE
  8
0
 10
16.7197
 20
11.6533
 11
16.7197
 21
10.457
  0
LINE
  8
0
 10
16.7197
 20
10.457
 11
17.3164
 21
10.457
  0
LINE
  8
0
 10
17.3164
 20
10.457
 11
17.3164
 21
11.6533
  0
LINE
  8
0
 10
13.5068
 20
11.6533
 11
12.9092
 21
11.6533
  0
LINE
  8
0
 10
12.9092
 20
11.6533
 11
12.9092
 21
10.457
  0
LINE
  8
0
 10
12.9092
 20
10.457
 11
13.5068
 21
10.457
  0
LINE
  8
0
 10
13.5068
 20
10.457
 11
13.5068
 21
11.6533
  0
LINE
  8
0
 10
12.2363
 20
11.6533
 11
11.6396
 21
11.6533
  0
LINE
  8
0
 10
11.6396
 20
11.6533
 11
11.6396
 21
10.457
  0
LINE
  8
0
 10
11.6396
 20
10.457
 11
12.2363
 21
10.457
  0
LINE
  8
0
 10
12.2363
 20
10.457
 11
12.2363
 21
11.6533
  0
LINE
  8
0
 10
10.9668
 20
11.6533
 11
10.3691
 21
11.6533
  0
LINE
  8
0
 10
10.3691
 20
11.6533
 11
10.3691
 21
10.457
  0
LINE
  8
0
 10
10.3691
 20
10.457
 11
10.9668
 21
10.457
  0
LINE
  8
0
 10
10.9668
 20
10.457
 11
10.9668
 21
11.6533
  0
LINE
  8
0
 10
9.69629
 20
11.6533
 11
9.09961
 21
11.6533
  0
LINE
  8
0
 10
9.09961
 20
11.6533
 11
9.09961
 21
10.457
  0
LINE
  8
0
 10
9.09961
 20
10.457
 11
9.69629
 21
10.457
  0
LINE
  8
0
 10
9.69629
 20
10.457
 11
9.69629
 21
11.6533
  0
LINE
  8
0
 10
8.42676
 20
11.6533
 11
7.8291
 21
11.6533
  0
LINE
  8
0
 10
7.8291
 20
11.6533
 11
7.8291
 21
10.457
  0
LINE
  8
0
 10
7.8291
 20
10.457
 11
8.42676
 21
10.457
  0
LINE
  8
0
 10
8.42676
 20
10.457
 11
8.42676
 21
11.6533
  0
LINE
  8
0
 10
33.3447
 20
9.85938
 11
32.3477
 21
9.85938
  0
LINE
  8
0
 10
32.3477
 20
9.85938
 11
32.3477
 21
9.3125
  0
LINE
  8
0
 10
32.3477
 20
9.3125
 11
33.3447
 21
9.3125
  0
LINE
  8
0
 10
33.3447
 20
9.3125
 11
33.3447
 21
9.85938
  0
LINE
  8
0
 10
30.6445
 20
9.85938
 11
29.6475
 21
9.85938
  0
LINE
  8
0
 10
29.6475
 20
9.85938
 11
29.6475
 21
9.3125
  0
LINE
  8
0
 10
29.6475
 20
9.3125
 11
30.6445
 21
9.3125
  0
LINE
  8
0
 10
30.6445
 20
9.3125
 11
30.6445
 21
9.85938
  0
LINE
  8
0
 10
38.0908
 20
9.85742
 11
37.0938
 21
9.85742
  0
LINE
  8
0
 10
37.0938
 20
9.85742
 11
37.0938
 21
8.86035
  0
LINE
  8
0
 10
37.0938
 20
8.86035
 11
38.0908
 21
8.86035
  0
LINE
  8
0
 10
38.0908
 20
8.86035
 11
38.0908
 21
9.85742
  0
LINE
  8
0
 10
34.627
 20
9.33203
 11
33.8301
 21
9.33203
  0
LINE
  8
0
 10
33.8301
 20
9.33203
 11
33.8301
 21
8.98535
  0
LINE
  8
0
 10
33.8301
 20
8.98535
 11
34.627
 21
8.98535
  0
LINE
  8
0
 10
34.627
 20
8.98535
 11
34.627
 21
9.33203
  0
LINE
  8
0
 10
36.5273
 20
9.33203
 11
35.7305
 21
9.33203
  0
LINE
  8
0
 10
35.7305
 20
9.33203
 11
35.7305
 21
8.98535
  0
LINE
  8
0
 10
35.7305
 20
8.98535
 11
36.5273
 21
8.98535
  0
LINE
  8
0
 10
36.5273
 20
8.98535
 11
36.5273
 21
9.33203
  0
LINE
  8
0
 10
33.3447
 20
8.90918
 11
32.3477
 21
8.90918
  0
LINE
  8
0
 10
32.3477
 20
8.90918
 11
32.3477
 21
8.3623
  0
LINE
  8
0
 10
32.3477
 20
8.3623
 11
33.3447
 21
8.3623
  0
LINE
  8
0
 10
33.3447
 20
8.3623
 11
33.3447
 21
8.90918
  0
LINE
  8
0
 10
36.5273
 20
8.68262
 11
35.7305
 21
8.68262
  0
LINE
  8
0
 10
35.7305
 20
8.68262
 11
35.7305
 21
8.33594
  0
LINE
  8
0
 10
35.7305
 20
8.33594
 11
36.5273
 21
8.33594
  0
LINE
  8
0
 10
36.5273
 20
8.33594
 11
36.5273
 21
8.68262
  0
LINE
  8
0
 10
38.0908
 20
8.15723
 11
37.0938
 21
8.15723
  0
LINE
  8
0
 10
37.0938
 20
8.15723
 11
37.0938
 21
7.16016
  0
LINE
  8
0
 10
37.0938
 20
7.16016
 11
38.0908
 21
7.16016
  0
LINE
  8
0
 10
38.0908
 20
7.16016
 11
38.0908
 21
8.15723
  0
LINE
  8
0
 10
36.5273
 20
8.03223
 11
35.7305
 21
8.03223
  0
LINE
  8
0
 10
35.7305
 20
8.03223
 11
35.7305
 21
7.68555
  0
LINE
  8
0
 10
35.7305
 20
7.68555
 11
36.5273
 21
7.68555
  0
LINE
  8
0
 10
36.5273
 20
7.68555
 11
36.5273
 21
8.03223
  0
LINE
  8
0
 10
34.627
 20
8.03223
 11
33.8301
 21
8.03223
  0
LINE
  8
0
 10
33.8301
 20
8.03223
 11
33.8301
 21
7.68555
  0
LINE
  8
0
 10
33.8301
 20
7.68555
 11
34.627
 21
7.68555
  0
LINE
  8
0
 10
34.627
 20
7.68555
 11
34.627
 21
8.03223
  0
LINE
  8
0
 10
30.6445
 20
7.95898
 11
29.6475
 21
7.95898
  0
LINE
  8
0
 10
29.6475
 20
7.95898
 11
29.6475
 21
7.41211
  0
LINE
  8
0
 10
29.6475
 20
7.41211
 11
30.6445
 21
7.41211
  0
LINE
  8
0
 10
30.6445
 20
7.41211
 11
30.6445
 21
7.95898
  0
LINE
  8
0
 10
33.3447
 20
7.95898
 11
32.3477
 21
7.95898
  0
LINE
  8
0
 10
32.3477
 20
7.95898
 11
32.3477
 21
7.41211
  0
LINE
  8
0
 10
32.3477
 20
7.41211
 11
33.3447
 21
7.41211
  0
LINE
  8
0
 10
33.3447
 20
7.41211
 11
33.3447
 21
7.95898
  0
LINE
  8
0
 10
34.373
 20
6.66504
 11
33.5762
 21
6.66504
  0
LINE
  8
0
 10
33.5762
 20
6.66504
 11
33.5762
 21
6.31836
  0
LINE
  8
0
 10
33.5762
 20
6.31836
 11
34.373
 21
6.31836
  0
LINE
  8
0
 10
34.373
 20
6.31836
 11
34.373
 21
6.66504
  0
LINE
  8
0
 10
33.2256
 20
6.66504
 11
32.4287
 21
6.66504
  0
LINE
  8
0
 10
32.4287
 20
6.66504
 11
32.4287
 21
6.31836
  0
LINE
  8
0
 10
32.4287
 20
6.31836
 11
33.2256
 21
6.31836
  0
LINE
  8
0
 10
33.2256
 20
6.31836
 11
33.2256
 21
6.66504
  0
LINE
  8
0
 10
31.3252
 20
6.66504
 11
30.5283
 21
6.66504
  0
LINE
  8
0
 10
30.5283
 20
6.66504
 11
30.5283
 21
6.31836
  0
LINE
  8
0
 10
30.5283
 20
6.31836
 11
31.3252
 21
6.31836
  0
LINE
  8
0
 10
31.3252
 20
6.31836
 11
31.3252
 21
6.66504
  0
LINE
  8
0
 10
36.2734
 20
6.66504
 11
35.4766
 21
6.66504
  0
LINE
  8
0
 10
35.4766
 20
6.66504
 11
35.4766
 21
6.31836
  0
LINE
  8
0
 10
35.4766
 20
6.31836
 11
36.2734
 21
6.31836
  0
LINE
  8
0
 10
36.2734
 20
6.31836
 11
36.2734
 21
6.66504
  0
LINE
  8
0
 10
9.69629
 20
6.05371
 11
9.09961
 21
6.05371
  0
LINE
  8
0
 10
9.09961
 20
6.05371
 11
9.09961
 21
4.85645
  0
LINE
  8
0
 10
9.09961
 20
4.85645
 11
9.69629
 21
4.85645
  0
LINE
  8
0
 10
9.69629
 20
4.85645
 11
9.69629
 21
6.05371
  0
LINE
  8
0
 10
8.42676
 20
6.05371
 11
7.8291
 21
6.05371
  0
LINE
  8
0
 10
7.8291
 20
6.05371
 11
7.8291
 21
4.85645
  0
LINE
  8
0
 10
7.8291
 20
4.85645
 11
8.42676
 21
4.85645
  0
LINE
  8
0
 10
8.42676
 20
4.85645
 11
8.42676
 21
6.05371
  0
LINE
  8
0
 10
19.7295
 20
6.05371
 11
19.1328
 21
6.05371
  0
LINE
  8
0
 10
19.1328
 20
6.05371
 11
19.1328
 21
4.85645
  0
LINE
  8
0
 10
19.1328
 20
4.85645
 11
19.7295
 21
4.85645
  0
LINE
  8
0
 10
19.7295
 20
4.85645
 11
19.7295
 21
6.05371
  0
LINE
  8
0
 10
20.999
 20
6.05371
 11
20.4023
 21
6.05371
  0
LINE
  8
0
 10
20.4023
 20
6.05371
 11
20.4023
 21
4.85645
  0
LINE
  8
0
 10
20.4023
 20
4.85645
 11
20.999
 21
4.85645
  0
LINE
  8
0
 10
20.999
 20
4.85645
 11
20.999
 21
6.05371
  0
LINE
  8
0
 10
22.2695
 20
6.05371
 11
21.6729
 21
6.05371
  0
LINE
  8
0
 10
21.6729
 20
6.05371
 11
21.6729
 21
4.85645
  0
LINE
  8
0
 10
21.6729
 20
4.85645
 11
22.2695
 21
4.85645
  0
LINE
  8
0
 10
22.2695
 20
4.85645
 11
22.2695
 21
6.05371
  0
LINE
  8
0
 10
23.5391
 20
6.05371
 11
22.9424
 21
6.05371
  0
LINE
  8
0
 10
22.9424
 20
6.05371
 11
22.9424
 21
4.85645
  0
LINE
  8
0
 10
22.9424
 20
4.85645
 11
23.5391
 21
4.85645
  0
LINE
  8
0
 10
23.5391
 20
4.85645
 11
23.5391
 21
6.05371
  0
LINE
  8
0
 10
24.8096
 20
6.05371
 11
24.2129
 21
6.05371
  0
LINE
  8
0
 10
24.2129
 20
6.05371
 11
24.2129
 21
4.85645
  0
LINE
  8
0
 10
24.2129
 20
4.85645
 11
24.8096
 21
4.85645
  0
LINE
  8
0
 10
24.8096
 20
4.85645
 11
24.8096
 21
6.05371
  0
LINE
  8
0
 10
26.0791
 20
6.05371
 11
25.4824
 21
6.05371
  0
LINE
  8
0
 10
25.4824
 20
6.05371
 11
25.4824
 21
4.85645
  0
LINE
  8
0
 10
25.4824
 20
4.85645
 11
26.0791
 21
4.85645
  0
LINE
  8
0
 10
26.0791
 20
4.85645
 11
26.0791
 21
6.05371
  0
LINE
  8
0
 10
27.3496
 20
6.05371
 11
26.7529
 21
6.05371
  0
LINE
  8
0
 10
26.7529
 20
6.05371
 11
26.7529
 21
4.85645
  0
LINE
  8
0
 10
26.7529
 20
4.85645
 11
27.3496
 21
4.85645
  0
LINE
  8
0
 10
27.3496
 20
4.85645
 11
27.3496
 21
6.05371
  0
LINE
  8
0
 10
28.6191
 20
6.05371
 11
28.0225
 21
6.05371
  0
LINE
  8
0
 10
28.0225
 20
6.05371
 11
28.0225
 21
4.85645
  0
LINE
  8
0
 10
28.0225
 20
4.85645
 11
28.6191
 21
4.85645
  0
LINE
  8
0
 10
28.6191
 20
4.85645
 11
28.6191
 21
6.05371
  0
LINE
  8
0
 10
17.3164
 20
6.05371
 11
16.7197
 21
6.05371
  0
LINE
  8
0
 10
16.7197
 20
6.05371
 11
16.7197
 21
4.85645
  0
LINE
  8
0
 10
16.7197
 20
4.85645
 11
17.3164
 21
4.85645
  0
LINE
  8
0
 10
17.3164
 20
4.85645
 11
17.3164
 21
6.05371
  0
LINE
  8
0
 10
16.0469
 20
6.05371
 11
15.4492
 21
6.05371
  0
LINE
  8
0
 10
15.4492
 20
6.05371
 11
15.4492
 21
4.85645
  0
LINE
  8
0
 10
15.4492
 20
4.85645
 11
16.0469
 21
4.85645
  0
LINE
  8
0
 10
16.0469
 20
4.85645
 11
16.0469
 21
6.05371
  0
LINE
  8
0
 10
14.7764
 20
6.05371
 11
14.1797
 21
6.05371
  0
LINE
  8
0
 10
14.1797
 20
6.05371
 11
14.1797
 21
4.85645
  0
LINE
  8
0
 10
14.1797
 20
4.85645
 11
14.7764
 21
4.85645
  0
LINE
  8
0
 10
14.7764
 20
4.85645
 11
14.7764
 21
6.05371
  0
LINE
  8
0
 10
13.5068
 20
6.05371
 11
12.9092
 21
6.05371
  0
LINE
  8
0
 10
12.9092
 20
6.05371
 11
12.9092
 21
4.85645
  0
LINE
  8
0
 10
12.9092
 20
4.85645
 11
13.5068
 21
4.85645
  0
LINE
  8
0
 10
13.5068
 20
4.85645
 11
13.5068
 21
6.05371
  0
LINE
  8
0
 10
12.2363
 20
6.05371
 11
11.6396
 21
6.05371
  0
LINE
  8
0
 10
11.6396
 20
6.05371
 11
11.6396
 21
4.85645
  0
LINE
  8
0
 10
11.6396
 20
4.85645
 11
12.2363
 21
4.85645
  0
LINE
  8
0
 10
12.2363
 20
4.85645
 11
12.2363
 21
6.05371
  0
LINE
  8
0
 10
10.9668
 20
6.05371
 11
10.3691
 21
6.05371
  0
LINE
  8
0
 10
10.3691
 20
6.05371
 11
10.3691
 21
4.85645
  0
LINE
  8
0
 10
10.3691
 20
4.85645
 11
10.9668
 21
4.85645
  0
LINE
  8
0
 10
10.9668
 20
4.85645
 11
10.9668
 21
6.05371
  0
LINE
  8
0
 10
31.3252
 20
6.01562
 11
30.5283
 21
6.01562
  0
LINE
  8
0
 10
30.5283
 20
6.01562
 11
30.5283
 21
5.66895
  0
LINE
  8
0
 10
30.5283
 20
5.66895
 11
31.3252
 21
5.66895
  0
LINE
  8
0
 10
31.3252
 20
5.66895
 11
31.3252
 21
6.01562
  0
LINE
  8
0
 10
34.373
 20
6.01562
 11
33.5762
 21
6.01562
  0
LINE
  8
0
 10
33.5762
 20
6.01562
 11
33.5762
 21
5.66895
  0
LINE
  8
0
 10
33.5762
 20
5.66895
 11
34.373
 21
5.66895
  0
LINE
  8
0
 10
34.373
 20
5.66895
 11
34.373
 21
6.01562
  0
LINE
  8
0
 10
34.373
 20
5.36523
 11
33.5762
 21
5.36523
  0
LINE
  8
0
 10
33.5762
 20
5.36523
 11
33.5762
 21
5.01855
  0
LINE
  8
0
 10
33.5762
 20
5.01855
 11
34.373
 21
5.01855
  0
LINE
  8
0
 10
34.373
 20
5.01855
 11
34.373
 21
5.36523
  0
LINE
  8
0
 10
31.3252
 20
5.36523
 11
30.5283
 21
5.36523
  0
LINE
  8
0
 10
30.5283
 20
5.36523
 11
30.5283
 21
5.01855
  0
LINE
  8
0
 10
30.5283
 20
5.01855
 11
31.3252
 21
5.01855
  0
LINE
  8
0
 10
31.3252
 20
5.01855
 11
31.3252
 21
5.36523
  0
LINE
  8
0
 10
33.2256
 20
5.36523
 11
32.4287
 21
5.36523
  0
LINE
  8
0
 10
32.4287
 20
5.36523
 11
32.4287
 21
5.01855
  0
LINE
  8
0
 10
32.4287
 20
5.01855
 11
33.2256
 21
5.01855
  0
LINE
  8
0
 10
33.2256
 20
5.01855
 11
33.2256
 21
5.36523
  0
LINE
  8
0
 10
36.2734
 20
5.36523
 11
35.4766
 21
5.36523
  0
LINE
  8
0
 10
35.4766
 20
5.36523
 11
35.4766
 21
5.01855
  0
LINE
  8
0
 10
35.4766
 20
5.01855
 11
36.2734
 21
5.01855
  0
LINE
  8
0
 10
36.2734
 20
5.01855
 11
36.2734
 21
5.36523
  0
LINE
  8
0
 10
31.6133
 20
3.88867
 11
30.6162
 21
3.88867
  0
LINE
  8
0
 10
30.6162
 20
3.88867
 11
30.6162
 21
2.8916
  0
LINE
  8
0
 10
30.6162
 20
2.8916
 11
31.6133
 21
2.8916
  0
LINE
  8
0
 10
31.6133
 20
2.8916
 11
31.6133
 21
3.88867
  0
LINE
  8
0
 10
29.3271
 20
3.88867
 11
28.3301
 21
3.88867
  0
LINE
  8
0
 10
28.3301
 20
3.88867
 11
28.3301
 21
2.8916
  0
LINE
  8
0
 10
28.3301
 20
2.8916
 11
29.3271
 21
2.8916
  0
LINE
  8
0
 10
29.3271
 20
2.8916
 11
29.3271
 21
3.88867
  0
LINE
  8
0
 10
23.9131
 20
3.76367
 11
22.917
 21
3.76367
  0
LINE
  8
0
 10
22.917
 20
3.76367
 11
22.917
 21
3.2168
  0
LINE
  8
0
 10
22.917
 20
3.2168
 11
23.9131
 21
3.2168
  0
LINE
  8
0
 10
23.9131
 20
3.2168
 11
23.9131
 21
3.76367
  0
LINE
  8
0
 10
26.6133
 20
3.76367
 11
25.6162
 21
3.76367
  0
LINE
  8
0
 10
25.6162
 20
3.76367
 11
25.6162
 21
3.2168
  0
LINE
  8
0
 10
25.6162
 20
3.2168
 11
26.6133
 21
3.2168
  0
LINE
  8
0
 10
26.6133
 20
3.2168
 11
26.6133
 21
3.76367
  0
LINE
  8
0
 10
33.4385
 20
3.76367
 11
32.4414
 21
3.76367
  0
LINE
  8
0
 10
32.4414
 20
3.76367
 11
32.4414
 21
3.2168
  0
LINE
  8
0
 10
32.4414
 20
3.2168
 11
33.4385
 21
3.2168
  0
LINE
  8
0
 10
33.4385
 20
3.2168
 11
33.4385
 21
3.76367
  0
LINE
  8
0
 10
36.1387
 20
3.76367
 11
35.1416
 21
3.76367
  0
LINE
  8
0
 10
35.1416
 20
3.76367
 11
35.1416
 21
3.2168
  0
LINE
  8
0
 10
35.1416
 20
3.2168
 11
36.1387
 21
3.2168
  0
LINE
  8
0
 10
36.1387
 20
3.2168
 11
36.1387
 21
3.76367
  0
LINE
  8
0
 10
22.0889
 20
3.76172
 11
21.0918
 21
3.76172
  0
LINE
  8
0
 10
21.0918
 20
3.76172
 11
21.0918
 21
2.76465
  0
LINE
  8
0
 10
21.0918
 20
2.76465
 11
22.0889
 21
2.76465
  0
LINE
  8
0
 10
22.0889
 20
2.76465
 11
22.0889
 21
3.76172
  0
LINE
  8
0
 10
19.8027
 20
3.76172
 11
18.8057
 21
3.76172
  0
LINE
  8
0
 10
18.8057
 20
3.76172
 11
18.8057
 21
2.76465
  0
LINE
  8
0
 10
18.8057
 20
2.76465
 11
19.8027
 21
2.76465
  0
LINE
  8
0
 10
19.8027
 20
2.76465
 11
19.8027
 21
3.76172
  0
LINE
  8
0
 10
13.5791
 20
3.76172
 11
12.583
 21
3.76172
  0
LINE
  8
0
 10
12.583
 20
3.76172
 11
12.583
 21
2.76465
  0
LINE
  8
0
 10
12.583
 20
2.76465
 11
13.5791
 21
2.76465
  0
LINE
  8
0
 10
13.5791
 20
2.76465
 11
13.5791
 21
3.76172
  0
LINE
  8
0
 10
11.4209
 20
3.76172
 11
10.4238
 21
3.76172
  0
LINE
  8
0
 10
10.4238
 20
3.76172
 11
10.4238
 21
2.76465
  0
LINE
  8
0
 10
10.4238
 20
2.76465
 11
11.4209
 21
2.76465
  0
LINE
  8
0
 10
11.4209
 20
2.76465
 11
11.4209
 21
3.76172
  0
LINE
  8
0
 10
16.7676
 20
3.15723
 11
16.0703
 21
3.15723
  0
LINE
  8
0
 10
16.0703
 20
3.15723
 11
16.0703
 21
2.46094
  0
LINE
  8
0
 10
16.0703
 20
2.46094
 11
16.7676
 21
2.46094
  0
LINE
  8
0
 10
16.7676
 20
2.46094
 11
16.7676
 21
3.15723
  0
LINE
  8
0
 10
9.73047
 20
3.10938
 11
8.93359
 21
3.10938
  0
LINE
  8
0
 10
8.93359
 20
3.10938
 11
8.93359
 21
2.7627
  0
LINE
  8
0
 10
8.93359
 20
2.7627
 11
9.73047
 21
2.7627
  0
LINE
  8
0
 10
9.73047
 20
2.7627
 11
9.73047
 21
3.10938
  0
LINE
  8
0
 10
7.83008
 20
3.10938
 11
7.0332
 21
3.10938
  0
LINE
  8
0
 10
7.0332
 20
3.10938
 11
7.0332
 21
2.7627
  0
LINE
  8
0
 10
7.0332
 20
2.7627
 11
7.83008
 21
2.7627
  0
LINE
  8
0
 10
7.83008
 20
2.7627
 11
7.83008
 21
3.10938
  0
LINE
  8
0
 10
36.1387
 20
2.81348
 11
35.1416
 21
2.81348
  0
LINE
  8
0
 10
35.1416
 20
2.81348
 11
35.1416
 21
2.2666
  0
LINE
  8
0
 10
35.1416
 20
2.2666
 11
36.1387
 21
2.2666
  0
LINE
  8
0
 10
36.1387
 20
2.2666
 11
36.1387
 21
2.81348
  0
LINE
  8
0
 10
26.6133
 20
2.81348
 11
25.6162
 21
2.81348
  0
LINE
  8
0
 10
25.6162
 20
2.81348
 11
25.6162
 21
2.2666
  0
LINE
  8
0
 10
25.6162
 20
2.2666
 11
26.6133
 21
2.2666
  0
LINE
  8
0
 10
26.6133
 20
2.2666
 11
26.6133
 21
2.81348
  0
LINE
  8
0
 10
14.917
 20
2.50781
 11
14.2207
 21
2.50781
  0
LINE
  8
0
 10
14.2207
 20
2.50781
 11
14.2207
 21
1.81055
  0
LINE
  8
0
 10
14.2207
 20
1.81055
 11
14.917
 21
1.81055
  0
LINE
  8
0
 10
14.917
 20
1.81055
 11
14.917
 21
2.50781
  0
LINE
  8
0
 10
7.83008
 20
2.45898
 11
7.0332
 21
2.45898
  0
LINE
  8
0
 10
7.0332
 20
2.45898
 11
7.0332
 21
2.1123
  0
LINE
  8
0
 10
7.0332
 20
2.1123
 11
7.83008
 21
2.1123
  0
LINE
  8
0
 10
7.83008
 20
2.1123
 11
7.83008
 21
2.45898
  0
LINE
  8
0
 10
29.3271
 20
2.18848
 11
28.3301
 21
2.18848
  0
LINE
  8
0
 10
28.3301
 20
2.18848
 11
28.3301
 21
1.19141
  0
LINE
  8
0
 10
28.3301
 20
1.19141
 11
29.3271
 21
1.19141
  0
LINE
  8
0
 10
29.3271
 20
1.19141
 11
29.3271
 21
2.18848
  0
LINE
  8
0
 10
31.6133
 20
2.18848
 11
30.6162
 21
2.18848
  0
LINE
  8
0
 10
30.6162
 20
2.18848
 11
30.6162
 21
1.19141
  0
LINE
  8
0
 10
30.6162
 20
1.19141
 11
31.6133
 21
1.19141
  0
LINE
  8
0
 10
31.6133
 20
1.19141
 11
31.6133
 21
2.18848
  0
LINE
  8
0
 10
13.5791
 20
2.06152
 11
12.583
 21
2.06152
  0
LINE
  8
0
 10
12.583
 20
2.06152
 11
12.583
 21
1.06445
  0
LINE
  8
0
 10
12.583
 20
1.06445
 11
13.5791
 21
1.06445
  0
LINE
  8
0
 10
13.5791
 20
1.06445
 11
13.5791
 21
2.06152
  0
LINE
  8
0
 10
11.4209
 20
2.06152
 11
10.4238
 21
2.06152
  0
LINE
  8
0
 10
10.4238
 20
2.06152
 11
10.4238
 21
1.06445
  0
LINE
  8
0
 10
10.4238
 20
1.06445
 11
11.4209
 21
1.06445
  0
LINE
  8
0
 10
11.4209
 20
1.06445
 11
11.4209
 21
2.06152
  0
LINE
  8
0
 10
19.8027
 20
2.06152
 11
18.8057
 21
2.06152
  0
LINE
  8
0
 10
18.8057
 20
2.06152
 11
18.8057
 21
1.06445
  0
LINE
  8
0
 10
18.8057
 20
1.06445
 11
19.8027
 21
1.06445
  0
LINE
  8
0
 10
19.8027
 20
1.06445
 11
19.8027
 21
2.06152
  0
LINE
  8
0
 10
22.0889
 20
2.06152
 11
21.0918
 21
2.06152
  0
LINE
  8
0
 10
21.0918
 20
2.06152
 11
21.0918
 21
1.06445
  0
LINE
  8
0
 10
21.0918
 20
1.06445
 11
22.0889
 21
1.06445
  0
LINE
  8
0
 10
22.0889
 20
1.06445
 11
22.0889
 21
2.06152
  0
LINE
  8
0
 10
23.9131
 20
1.86328
 11
22.917
 21
1.86328
  0
LINE
  8
0
 10
22.917
 20
1.86328
 11
22.917
 21
1.31641
  0
LINE
  8
0
 10
22.917
 20
1.31641
 11
23.9131
 21
1.31641
  0
LINE
  8
0
 10
23.9131
 20
1.31641
 11
23.9131
 21
1.86328
  0
LINE
  8
0
 10
26.6133
 20
1.86328
 11
25.6162
 21
1.86328
  0
LINE
  8
0
 10
25.6162
 20
1.86328
 11
25.6162
 21
1.31641
  0
LINE
  8
0
 10
25.6162
 20
1.31641
 11
26.6133
 21
1.31641
  0
LINE
  8
0
 10
26.6133
 20
1.31641
 11
26.6133
 21
1.86328
  0
LINE
  8
0
 10
33.4385
 20
1.86328
 11
32.4414
 21
1.86328
  0
LINE
  8
0
 10
32.4414
 20
1.86328
 11
32.4414
 21
1.31641
  0
LINE
  8
0
 10
32.4414
 20
1.31641
 11
33.4385
 21
1.31641
  0
LINE
  8
0
 10
33.4385
 20
1.31641
 11
33.4385
 21
1.86328
  0
LINE
  8
0
 10
36.1387
 20
1.86328
 11
35.1416
 21
1.86328
  0
LINE
  8
0
 10
35.1416
 20
1.86328
 11
35.1416
 21
1.31641
  0
LINE
  8
0
 10
35.1416
 20
1.31641
 11
36.1387
 21
1.31641
  0
LINE
  8
0
 10
36.1387
 20
1.31641
 11
36.1387
 21
1.86328
  0
LINE
  8
0
 10
16.7676
 20
1.85742
 11
16.0703
 21
1.85742
  0
LINE
  8
0
 10
16.0703
 20
1.85742
 11
16.0703
 21
1.16016
  0
LINE
  8
0
 10
16.0703
 20
1.16016
 11
16.7676
 21
1.16016
  0
LINE
  8
0
 10
16.7676
 20
1.16016
 11
16.7676
 21
1.85742
  0
LINE
  8
0
 10
7.83008
 20
1.80957
 11
7.0332
 21
1.80957
  0
LINE
  8
0
 10
7.0332
 20
1.80957
 11
7.0332
 21
1.46289
  0
LINE
  8
0
 10
7.0332
 20
1.46289
 11
7.83008
 21
1.46289
  0
LINE
  8
0
 10
7.83008
 20
1.46289
 11
7.83008
 21
1.80957
  0
LINE
  8
0
 10
9.73047
 20
1.80957
 11
8.93359
 21
1.80957
  0
LINE
  8
0
 10
8.93359
 20
1.80957
 11
8.93359
 21
1.46289
  0
LINE
  8
0
 10
8.93359
 20
1.46289
 11
9.73047
 21
1.46289
  0
LINE
  8
0
 10
9.73047
 20
1.46289
 11
9.73047
 21
1.80957
  0
ENDSEC
  0
SECTION
  2
OBJECTS
  0
DICTIONARY
  0
ENDSEC
  0
EOF
