  0
SECTION
  2
HEADER
  9
$ACADVER
  1
AC1009
  9
$MEASUREMENT
 70
     1
  0
ENDSEC
  0
SECTION
  2
ENTITIES
  0
LWPOLYLINE
  8
0
 62
7
 90
5
 70
1
 10
13.081000
 20
2.061437
 10
12.582562
 20
2.061437
 10
12.582562
 20
1.064563
 10
13.579437
 20
1.064563
 10
13.579437
 20
2.061437
  0
LWPOLYLINE
  8
0
 62
7
 90
5
 70
1
 10
13.081000
 20
3.761437
 10
12.582562
 20
3.761437
 10
12.582562
 20
2.764562
 10
13.579437
 20
2.764562
 10
13.579437
 20
3.761437
  0
LWPOLYLINE
  8
0
 62
7
 90
5
 70
1
 10
5.588000
 20
17.682438
 10
5.089563
 20
17.682438
 10
5.089563
 20
16.685562
 10
6.086437
 20
16.685562
 10
6.086437
 20
17.682438
  0
LWPOLYLINE
  8
0
 62
7
 90
5
 70
1
 10
5.588000
 20
19.382438
 10
5.089563
 20
19.382438
 10
5.089563
 20
18.385562
 10
6.086437
 20
18.385562
 10
6.086437
 20
19.382438
  0
LWPOLYLINE
  8
0
 62
7
 90
5
 70
1
 10
37.592000
 20
8.157438
 10
37.093562
 20
8.157438
 10
37.093562
 20
7.160563
 10
38.090438
 20
7.160563
 10
38.090438
 20
8.157438
  0
LWPOLYLINE
  8
0
 62
7
 90
5
 70
1
 10
37.592000
 20
9.857437
 10
37.093562
 20
9.857437
 10
37.093562
 20
8.860563
 10
38.090438
 20
8.860563
 10
38.090438
 20
9.857437
  0
LWPOLYLINE
  8
0
 62
7
 90
5
 70
1
 10
16.419000
 20
1.857437
 10
16.070563
 20
1.857437
 10
16.070563
 20
1.160562
 10
16.767437
 20
1.160562
 10
16.767437
 20
1.857437
  0
LWPOLYLINE
  8
0
 62
7
 90
5
 70
1
 10
16.419000
 20
3.157438
 10
16.070563
 20
3.157438
 10
16.070563
 20
2.460562
 10
16.767437
 20
2.460562
 10
16.767437
 20
3.157438
  0
LWPOLYLINE
  8
0
 62
7
 90
5
 70
1
 10
14.569000
 20
2.507437
 10
14.220563
 20
2.507437
 10
14.220563
 20
1.810562
 10
14.917438
 20
1.810562
 10
14.917438
 20
2.507437
  0
LWPOLYLINE
  8
0
 62
7
 90
5
 70
1
 10
1.988438
 20
16.907000
 10
1.988438
 20
17.355438
 10
1.191563
 20
17.355438
 10
1.191563
 20
16.458562
 10
1.988438
 20
16.458562
  0
LWPOLYLINE
  8
0
 62
7
 90
5
 70
1
 10
3.888438
 20
16.907000
 10
3.888438
 20
17.355438
 10
3.091563
 20
17.355438
 10
3.091563
 20
16.458562
 10
3.888438
 20
16.458562
  0
LWPOLYLINE
  8
0
 62
7
 90
5
 70
1
 10
2.938438
 20
19.007000
 10
2.938438
 20
19.455438
 10
2.141563
 20
19.455438
 10
2.141563
 20
18.558563
 10
2.938438
 20
18.558563
  0
LWPOLYLINE
  8
0
 62
7
 90
5
 70
1
 10
10.922000
 20
2.764562
 10
11.420438
 20
2.764562
 10
11.420438
 20
3.761437
 10
10.423563
 20
3.761437
 10
10.423563
 20
2.764562
  0
LWPOLYLINE
  8
0
 62
7
 90
5
 70
1
 10
10.922000
 20
1.064563
 10
11.420438
 20
1.064563
 10
11.420438
 20
2.061437
 10
10.423563
 20
2.061437
 10
10.423563
 20
1.064563
  0
LWPOLYLINE
  8
0
 62
7
 90
5
 70
1
 10
30.734000
 20
16.793438
 10
30.235563
 20
16.793438
 10
30.235563
 20
15.796563
 10
31.232438
 20
15.796563
 10
31.232438
 20
16.793438
  0
LWPOLYLINE
  8
0
 62
7
 90
5
 70
1
 10
30.734000
 20
18.493438
 10
30.235563
 20
18.493438
 10
30.235563
 20
17.496562
 10
31.232438
 20
17.496562
 10
31.232438
 20
18.493438
  0
LWPOLYLINE
  8
0
 62
7
 90
5
 70
1
 10
28.829000
 20
2.188438
 10
28.330562
 20
2.188438
 10
28.330562
 20
1.191562
 10
29.327438
 20
1.191562
 10
29.327438
 20
2.188438
  0
LWPOLYLINE
  8
0
 62
7
 90
5
 70
1
 10
28.829000
 20
3.888438
 10
28.330562
 20
3.888438
 10
28.330562
 20
2.891563
 10
29.327438
 20
2.891563
 10
29.327438
 20
3.888438
  0
LWPOLYLINE
  8
0
 62
7
 90
5
 70
1
 10
19.304000
 20
2.061437
 10
18.805562
 20
2.061437
 10
18.805562
 20
1.064563
 10
19.802437
 20
1.064563
 10
19.802437
 20
2.061437
  0
LWPOLYLINE
  8
0
 62
7
 90
5
 70
1
 10
19.304000
 20
3.761437
 10
18.805562
 20
3.761437
 10
18.805562
 20
2.764562
 10
19.802437
 20
2.764562
 10
19.802437
 20
3.761437
  0
LWPOLYLINE
  8
0
 62
7
 90
5
 70
1
 10
31.115000
 20
2.891563
 10
31.613437
 20
2.891563
 10
31.613437
 20
3.888438
 10
30.616562
 20
3.888438
 10
30.616562
 20
2.891563
  0
LWPOLYLINE
  8
0
 62
7
 90
5
 70
1
 10
31.115000
 20
1.191562
 10
31.613437
 20
1.191562
 10
31.613437
 20
2.188438
 10
30.616562
 20
2.188438
 10
30.616562
 20
1.191562
  0
LWPOLYLINE
  8
0
 62
7
 90
5
 70
1
 10
21.590000
 20
2.764562
 10
22.088438
 20
2.764562
 10
22.088438
 20
3.761437
 10
21.091562
 20
3.761437
 10
21.091562
 20
2.764562
  0
LWPOLYLINE
  8
0
 62
7
 90
5
 70
1
 10
21.590000
 20
1.064563
 10
22.088438
 20
1.064563
 10
22.088438
 20
2.061437
 10
21.091562
 20
2.061437
 10
21.091562
 20
1.064563
  0
LWPOLYLINE
  8
0
 62
7
 90
5
 70
1
 10
31.593562
 20
19.685000
 10
31.593562
 20
19.186562
 10
32.590438
 20
19.186562
 10
32.590438
 20
20.183438
 10
31.593562
 20
20.183438
  0
LWPOLYLINE
  8
0
 62
7
 90
5
 70
1
 10
29.893562
 20
19.685000
 10
29.893562
 20
19.186562
 10
30.890438
 20
19.186562
 10
30.890438
 20
20.183438
 10
29.893562
 20
20.183438
  0
LWPOLYLINE
  8
0
 62
7
 90
5
 70
1
 10
30.734000
 20
14.448562
 10
31.232438
 20
14.448562
 10
31.232438
 20
15.445437
 10
30.235563
 20
15.445437
 10
30.235563
 20
14.448562
  0
LWPOLYLINE
  8
0
 62
7
 90
5
 70
1
 10
30.734000
 20
12.748563
 10
31.232438
 20
12.748563
 10
31.232438
 20
13.745437
 10
30.235563
 20
13.745437
 10
30.235563
 20
12.748563
  0
LWPOLYLINE
  8
0
 62
7
 90
5
 70
1
 10
36.129000
 20
8.032438
 10
35.730562
 20
8.032438
 10
35.730562
 20
7.685562
 10
36.527437
 20
7.685562
 10
36.527437
 20
8.032438
  0
LWPOLYLINE
  8
0
 62
7
 90
5
 70
1
 10
36.129000
 20
8.682438
 10
35.730562
 20
8.682438
 10
35.730562
 20
8.335562
 10
36.527437
 20
8.335562
 10
36.527437
 20
8.682438
  0
LWPOLYLINE
  8
0
 62
7
 90
5
 70
1
 10
36.129000
 20
9.332438
 10
35.730562
 20
9.332438
 10
35.730562
 20
8.985563
 10
36.527437
 20
8.985563
 10
36.527437
 20
9.332438
  0
LWPOLYLINE
  8
0
 62
7
 90
5
 70
1
 10
34.229000
 20
9.332438
 10
33.830562
 20
9.332438
 10
33.830562
 20
8.985563
 10
34.627437
 20
8.985563
 10
34.627437
 20
9.332438
  0
LWPOLYLINE
  8
0
 62
7
 90
5
 70
1
 10
34.229000
 20
8.032438
 10
33.830562
 20
8.032438
 10
33.830562
 20
7.685562
 10
34.627437
 20
7.685562
 10
34.627437
 20
8.032438
  0
LWPOLYLINE
  8
0
 62
7
 90
5
 70
1
 10
7.432000
 20
2.762563
 10
7.830438
 20
2.762563
 10
7.830438
 20
3.109437
 10
7.033563
 20
3.109437
 10
7.033563
 20
2.762563
  0
LWPOLYLINE
  8
0
 62
7
 90
5
 70
1
 10
7.432000
 20
2.112563
 10
7.830438
 20
2.112563
 10
7.830438
 20
2.459437
 10
7.033563
 20
2.459437
 10
7.033563
 20
2.112563
  0
LWPOLYLINE
  8
0
 62
7
 90
5
 70
1
 10
7.432000
 20
1.462562
 10
7.830438
 20
1.462562
 10
7.830438
 20
1.809437
 10
7.033563
 20
1.809437
 10
7.033563
 20
1.462562
  0
LWPOLYLINE
  8
0
 62
7
 90
5
 70
1
 10
9.332000
 20
1.462562
 10
9.730438
 20
1.462562
 10
9.730438
 20
1.809437
 10
8.933563
 20
1.809437
 10
8.933563
 20
1.462562
  0
LWPOLYLINE
  8
0
 62
7
 90
5
 70
1
 10
9.332000
 20
2.762563
 10
9.730438
 20
2.762563
 10
9.730438
 20
3.109437
 10
8.933563
 20
3.109437
 10
8.933563
 20
2.762563
  0
LWPOLYLINE
  8
0
 62
7
 90
5
 70
1
 10
32.846000
 20
7.959437
 10
32.347562
 20
7.959437
 10
32.347562
 20
7.412562
 10
33.344437
 20
7.412562
 10
33.344437
 20
7.959437
  0
LWPOLYLINE
  8
0
 62
7
 90
5
 70
1
 10
32.846000
 20
8.909437
 10
32.347562
 20
8.909437
 10
32.347562
 20
8.362562
 10
33.344437
 20
8.362562
 10
33.344437
 20
8.909437
  0
LWPOLYLINE
  8
0
 62
7
 90
5
 70
1
 10
32.846000
 20
9.859438
 10
32.347562
 20
9.859438
 10
32.347562
 20
9.312563
 10
33.344437
 20
9.312563
 10
33.344437
 20
9.859438
  0
LWPOLYLINE
  8
0
 62
7
 90
5
 70
1
 10
30.146000
 20
9.859438
 10
29.647562
 20
9.859438
 10
29.647562
 20
9.312563
 10
30.644438
 20
9.312563
 10
30.644438
 20
9.859438
  0
LWPOLYLINE
  8
0
 62
7
 90
5
 70
1
 10
30.146000
 20
7.959437
 10
29.647562
 20
7.959437
 10
29.647562
 20
7.412562
 10
30.644438
 20
7.412562
 10
30.644438
 20
7.959437
  0
LWPOLYLINE
  8
0
 62
7
 90
5
 70
1
 10
19.729437
 20
5.455000
 10
19.729437
 20
6.053438
 10
19.132563
 20
6.053438
 10
19.132563
 20
4.856562
 10
19.729437
 20
4.856562
  0
LWPOLYLINE
  8
0
 62
7
 90
5
 70
1
 10
20.999437
 20
5.455000
 10
20.999437
 20
6.053438
 10
20.402563
 20
6.053438
 10
20.402563
 20
4.856562
 10
20.999437
 20
4.856562
  0
LWPOLYLINE
  8
0
 62
7
 90
5
 70
1
 10
22.269437
 20
5.455000
 10
22.269437
 20
6.053438
 10
21.672563
 20
6.053438
 10
21.672563
 20
4.856562
 10
22.269437
 20
4.856562
  0
LWPOLYLINE
  8
0
 62
7
 90
5
 70
1
 10
23.539437
 20
5.455000
 10
23.539437
 20
6.053438
 10
22.942563
 20
6.053438
 10
22.942563
 20
4.856562
 10
23.539437
 20
4.856562
  0
LWPOLYLINE
  8
0
 62
7
 90
5
 70
1
 10
24.809437
 20
5.455000
 10
24.809437
 20
6.053438
 10
24.212563
 20
6.053438
 10
24.212563
 20
4.856562
 10
24.809437
 20
4.856562
  0
LWPOLYLINE
  8
0
 62
7
 90
5
 70
1
 10
26.079437
 20
5.455000
 10
26.079437
 20
6.053438
 10
25.482563
 20
6.053438
 10
25.482563
 20
4.856562
 10
26.079437
 20
4.856562
  0
LWPOLYLINE
  8
0
 62
7
 90
5
 70
1
 10
27.349437
 20
5.455000
 10
27.349437
 20
6.053438
 10
26.752562
 20
6.053438
 10
26.752562
 20
4.856562
 10
27.349437
 20
4.856562
  0
LWPOLYLINE
  8
0
 62
7
 90
5
 70
1
 10
28.619438
 20
5.455000
 10
28.619438
 20
6.053438
 10
28.022563
 20
6.053438
 10
28.022563
 20
4.856562
 10
28.619438
 20
4.856562
  0
LWPOLYLINE
  8
0
 62
7
 90
5
 70
1
 10
28.619438
 20
11.055000
 10
28.619438
 20
11.653437
 10
28.022563
 20
11.653437
 10
28.022563
 20
10.456563
 10
28.619438
 20
10.456563
  0
LWPOLYLINE
  8
0
 62
7
 90
5
 70
1
 10
27.349437
 20
11.055000
 10
27.349437
 20
11.653437
 10
26.752562
 20
11.653437
 10
26.752562
 20
10.456563
 10
27.349437
 20
10.456563
  0
LWPOLYLINE
  8
0
 62
7
 90
5
 70
1
 10
26.079437
 20
11.055000
 10
26.079437
 20
11.653437
 10
25.482563
 20
11.653437
 10
25.482563
 20
10.456563
 10
26.079437
 20
10.456563
  0
LWPOLYLINE
  8
0
 62
7
 90
5
 70
1
 10
24.809437
 20
11.055000
 10
24.809437
 20
11.653437
 10
24.212563
 20
11.653437
 10
24.212563
 20
10.456563
 10
24.809437
 20
10.456563
  0
LWPOLYLINE
  8
0
 62
7
 90
5
 70
1
 10
23.539437
 20
11.055000
 10
23.539437
 20
11.653437
 10
22.942563
 20
11.653437
 10
22.942563
 20
10.456563
 10
23.539437
 20
10.456563
  0
LWPOLYLINE
  8
0
 62
7
 90
5
 70
1
 10
22.269437
 20
11.055000
 10
22.269437
 20
11.653437
 10
21.672563
 20
11.653437
 10
21.672563
 20
10.456563
 10
22.269437
 20
10.456563
  0
LWPOLYLINE
  8
0
 62
7
 90
5
 70
1
 10
20.999437
 20
11.055000
 10
20.999437
 20
11.653437
 10
20.402563
 20
11.653437
 10
20.402563
 20
10.456563
 10
20.999437
 20
10.456563
  0
LWPOLYLINE
  8
0
 62
7
 90
5
 70
1
 10
19.729437
 20
11.055000
 10
19.729437
 20
11.653437
 10
19.132563
 20
11.653437
 10
19.132563
 20
10.456563
 10
19.729437
 20
10.456563
  0
LWPOLYLINE
  8
0
 62
7
 90
5
 70
1
 10
19.729437
 20
13.202000
 10
19.729437
 20
13.800437
 10
19.132563
 20
13.800437
 10
19.132563
 20
12.603563
 10
19.729437
 20
12.603563
  0
LWPOLYLINE
  8
0
 62
7
 90
5
 70
1
 10
20.999437
 20
13.202000
 10
20.999437
 20
13.800437
 10
20.402563
 20
13.800437
 10
20.402563
 20
12.603563
 10
20.999437
 20
12.603563
  0
LWPOLYLINE
  8
0
 62
7
 90
5
 70
1
 10
22.269437
 20
13.202000
 10
22.269437
 20
13.800437
 10
21.672563
 20
13.800437
 10
21.672563
 20
12.603563
 10
22.269437
 20
12.603563
  0
LWPOLYLINE
  8
0
 62
7
 90
5
 70
1
 10
23.539437
 20
13.202000
 10
23.539437
 20
13.800437
 10
22.942563
 20
13.800437
 10
22.942563
 20
12.603563
 10
23.539437
 20
12.603563
  0
LWPOLYLINE
  8
0
 62
7
 90
5
 70
1
 10
24.809437
 20
13.202000
 10
24.809437
 20
13.800437
 10
24.212563
 20
13.800437
 10
24.212563
 20
12.603563
 10
24.809437
 20
12.603563
  0
LWPOLYLINE
  8
0
 62
7
 90
5
 70
1
 10
26.079437
 20
13.202000
 10
26.079437
 20
13.800437
 10
25.482563
 20
13.800437
 10
25.482563
 20
12.603563
 10
26.079437
 20
12.603563
  0
LWPOLYLINE
  8
0
 62
7
 90
5
 70
1
 10
27.349437
 20
13.202000
 10
27.349437
 20
13.800437
 10
26.752562
 20
13.800437
 10
26.752562
 20
12.603563
 10
27.349437
 20
12.603563
  0
LWPOLYLINE
  8
0
 62
7
 90
5
 70
1
 10
28.619438
 20
13.202000
 10
28.619438
 20
13.800437
 10
28.022563
 20
13.800437
 10
28.022563
 20
12.603563
 10
28.619438
 20
12.603563
  0
LWPOLYLINE
  8
0
 62
7
 90
5
 70
1
 10
28.619438
 20
18.802000
 10
28.619438
 20
19.400437
 10
28.022563
 20
19.400437
 10
28.022563
 20
18.203563
 10
28.619438
 20
18.203563
  0
LWPOLYLINE
  8
0
 62
7
 90
5
 70
1
 10
27.349437
 20
18.802000
 10
27.349437
 20
19.400437
 10
26.752562
 20
19.400437
 10
26.752562
 20
18.203563
 10
27.349437
 20
18.203563
  0
LWPOLYLINE
  8
0
 62
7
 90
5
 70
1
 10
26.079437
 20
18.802000
 10
26.079437
 20
19.400437
 10
25.482563
 20
19.400437
 10
25.482563
 20
18.203563
 10
26.079437
 20
18.203563
  0
LWPOLYLINE
  8
0
 62
7
 90
5
 70
1
 10
24.809437
 20
18.802000
 10
24.809437
 20
19.400437
 10
24.212563
 20
19.400437
 10
24.212563
 20
18.203563
 10
24.809437
 20
18.203563
  0
LWPOLYLINE
  8
0
 62
7
 90
5
 70
1
 10
23.539437
 20
18.802000
 10
23.539437
 20
19.400437
 10
22.942563
 20
19.400437
 10
22.942563
 20
18.203563
 10
23.539437
 20
18.203563
  0
LWPOLYLINE
  8
0
 62
7
 90
5
 70
1
 10
22.269437
 20
18.802000
 10
22.269437
 20
19.400437
 10
21.672563
 20
19.400437
 10
21.672563
 20
18.203563
 10
22.269437
 20
18.203563
  0
LWPOLYLINE
  8
0
 62
7
 90
5
 70
1
 10
20.999437
 20
18.802000
 10
20.999437
 20
19.400437
 10
20.402563
 20
19.400437
 10
20.402563
 20
18.203563
 10
20.999437
 20
18.203563
  0
LWPOLYLINE
  8
0
 62
7
 90
5
 70
1
 10
19.729437
 20
18.802000
 10
19.729437
 20
19.400437
 10
19.132563
 20
19.400437
 10
19.132563
 20
18.203563
 10
19.729437
 20
18.203563
  0
LWPOLYLINE
  8
0
 62
7
 90
5
 70
1
 10
8.426438
 20
5.455000
 10
8.426438
 20
6.053438
 10
7.829562
 20
6.053438
 10
7.829562
 20
4.856562
 10
8.426438
 20
4.856562
  0
LWPOLYLINE
  8
0
 62
7
 90
5
 70
1
 10
9.696438
 20
5.455000
 10
9.696438
 20
6.053438
 10
9.099562
 20
6.053438
 10
9.099562
 20
4.856562
 10
9.696438
 20
4.856562
  0
LWPOLYLINE
  8
0
 62
7
 90
5
 70
1
 10
10.966437
 20
5.455000
 10
10.966437
 20
6.053438
 10
10.369562
 20
6.053438
 10
10.369562
 20
4.856562
 10
10.966437
 20
4.856562
  0
LWPOLYLINE
  8
0
 62
7
 90
5
 70
1
 10
12.236438
 20
5.455000
 10
12.236438
 20
6.053438
 10
11.639563
 20
6.053438
 10
11.639563
 20
4.856562
 10
12.236438
 20
4.856562
  0
LWPOLYLINE
  8
0
 62
7
 90
5
 70
1
 10
13.506438
 20
5.455000
 10
13.506438
 20
6.053438
 10
12.909562
 20
6.053438
 10
12.909562
 20
4.856562
 10
13.506438
 20
4.856562
  0
LWPOLYLINE
  8
0
 62
7
 90
5
 70
1
 10
14.776438
 20
5.455000
 10
14.776438
 20
6.053438
 10
14.179562
 20
6.053438
 10
14.179562
 20
4.856562
 10
14.776438
 20
4.856562
  0
LWPOLYLINE
  8
0
 62
7
 90
5
 70
1
 10
16.046437
 20
5.455000
 10
16.046437
 20
6.053438
 10
15.449562
 20
6.053438
 10
15.449562
 20
4.856562
 10
16.046437
 20
4.856562
  0
LWPOLYLINE
  8
0
 62
7
 90
5
 70
1
 10
17.316437
 20
5.455000
 10
17.316437
 20
6.053438
 10
16.719563
 20
6.053438
 10
16.719563
 20
4.856562
 10
17.316437
 20
4.856562
  0
LWPOLYLINE
  8
0
 62
7
 90
5
 70
1
 10
17.316437
 20
11.055000
 10
17.316437
 20
11.653437
 10
16.719563
 20
11.653437
 10
16.719563
 20
10.456563
 10
17.316437
 20
10.456563
  0
LWPOLYLINE
  8
0
 62
7
 90
5
 70
1
 10
16.046437
 20
11.055000
 10
16.046437
 20
11.653437
 10
15.449562
 20
11.653437
 10
15.449562
 20
10.456563
 10
16.046437
 20
10.456563
  0
LWPOLYLINE
  8
0
 62
7
 90
5
 70
1
 10
14.776438
 20
11.055000
 10
14.776438
 20
11.653437
 10
14.179562
 20
11.653437
 10
14.179562
 20
10.456563
 10
14.776438
 20
10.456563
  0
LWPOLYLINE
  8
0
 62
7
 90
5
 70
1
 10
13.506438
 20
11.055000
 10
13.506438
 20
11.653437
 10
12.909562
 20
11.653437
 10
12.909562
 20
10.456563
 10
13.506438
 20
10.456563
  0
LWPOLYLINE
  8
0
 62
7
 90
5
 70
1
 10
12.236438
 20
11.055000
 10
12.236438
 20
11.653437
 10
11.639563
 20
11.653437
 10
11.639563
 20
10.456563
 10
12.236438
 20
10.456563
  0
LWPOLYLINE
  8
0
 62
7
 90
5
 70
1
 10
10.966437
 20
11.055000
 10
10.966437
 20
11.653437
 10
10.369562
 20
11.653437
 10
10.369562
 20
10.456563
 10
10.966437
 20
10.456563
  0
LWPOLYLINE
  8
0
 62
7
 90
5
 70
1
 10
9.696438
 20
11.055000
 10
9.696438
 20
11.653437
 10
9.099562
 20
11.653437
 10
9.099562
 20
10.456563
 10
9.696438
 20
10.456563
  0
LWPOLYLINE
  8
0
 62
7
 90
5
 70
1
 10
8.426438
 20
11.055000
 10
8.426438
 20
11.653437
 10
7.829562
 20
11.653437
 10
7.829562
 20
10.456563
 10
8.426438
 20
10.456563
  0
LWPOLYLINE
  8
0
 62
7
 90
5
 70
1
 10
8.426438
 20
13.202000
 10
8.426438
 20
13.800437
 10
7.829562
 20
13.800437
 10
7.829562
 20
12.603563
 10
8.426438
 20
12.603563
  0
LWPOLYLINE
  8
0
 62
7
 90
5
 70
1
 10
9.696438
 20
13.202000
 10
9.696438
 20
13.800437
 10
9.099562
 20
13.800437
 10
9.099562
 20
12.603563
 10
9.696438
 20
12.603563
  0
LWPOLYLINE
  8
0
 62
7
 90
5
 70
1
 10
10.966437
 20
13.202000
 10
10.966437
 20
13.800437
 10
10.369562
 20
13.800437
 10
10.369562
 20
12.603563
 10
10.966437
 20
12.603563
  0
LWPOLYLINE
  8
0
 62
7
 90
5
 70
1
 10
12.236438
 20
13.202000
 10
12.236438
 20
13.800437
 10
11.639563
 20
13.800437
 10
11.639563
 20
12.603563
 10
12.236438
 20
12.603563
  0
LWPOLYLINE
  8
0
 62
7
 90
5
 70
1
 10
13.506438
 20
13.202000
 10
13.506438
 20
13.800437
 10
12.909562
 20
13.800437
 10
12.909562
 20
12.603563
 10
13.506438
 20
12.603563
  0
LWPOLYLINE
  8
0
 62
7
 90
5
 70
1
 10
14.776438
 20
13.202000
 10
14.776438
 20
13.800437
 10
14.179562
 20
13.800437
 10
14.179562
 20
12.603563
 10
14.776438
 20
12.603563
  0
LWPOLYLINE
  8
0
 62
7
 90
5
 70
1
 10
16.046437
 20
13.202000
 10
16.046437
 20
13.800437
 10
15.449562
 20
13.800437
 10
15.449562
 20
12.603563
 10
16.046437
 20
12.603563
  0
LWPOLYLINE
  8
0
 62
7
 90
5
 70
1
 10
17.316437
 20
13.202000
 10
17.316437
 20
13.800437
 10
16.719563
 20
13.800437
 10
16.719563
 20
12.603563
 10
17.316437
 20
12.603563
  0
LWPOLYLINE
  8
0
 62
7
 90
5
 70
1
 10
17.316437
 20
18.802000
 10
17.316437
 20
19.400437
 10
16.719563
 20
19.400437
 10
16.719563
 20
18.203563
 10
17.316437
 20
18.203563
  0
LWPOLYLINE
  8
0
 62
7
 90
5
 70
1
 10
16.046437
 20
18.802000
 10
16.046437
 20
19.400437
 10
15.449562
 20
19.400437
 10
15.449562
 20
18.203563
 10
16.046437
 20
18.203563
  0
LWPOLYLINE
  8
0
 62
7
 90
5
 70
1
 10
14.776438
 20
18.802000
 10
14.776438
 20
19.400437
 10
14.179562
 20
19.400437
 10
14.179562
 20
18.203563
 10
14.776438
 20
18.203563
  0
LWPOLYLINE
  8
0
 62
7
 90
5
 70
1
 10
13.506438
 20
18.802000
 10
13.506438
 20
19.400437
 10
12.909562
 20
19.400437
 10
12.909562
 20
18.203563
 10
13.506438
 20
18.203563
  0
LWPOLYLINE
  8
0
 62
7
 90
5
 70
1
 10
12.236438
 20
18.802000
 10
12.236438
 20
19.400437
 10
11.639563
 20
19.400437
 10
11.639563
 20
18.203563
 10
12.236438
 20
18.203563
  0
LWPOLYLINE
  8
0
 62
7
 90
5
 70
1
 10
10.966437
 20
18.802000
 10
10.966437
 20
19.400437
 10
10.369562
 20
19.400437
 10
10.369562
 20
18.203563
 10
10.966437
 20
18.203563
  0
LWPOLYLINE
  8
0
 62
7
 90
5
 70
1
 10
9.696438
 20
18.802000
 10
9.696438
 20
19.400437
 10
9.099562
 20
19.400437
 10
9.099562
 20
18.203563
 10
9.696438
 20
18.203563
  0
LWPOLYLINE
  8
0
 62
7
 90
5
 70
1
 10
8.426438
 20
18.802000
 10
8.426438
 20
19.400437
 10
7.829562
 20
19.400437
 10
7.829562
 20
18.203563
 10
8.426438
 20
18.203563
  0
LWPOLYLINE
  8
0
 62
7
 90
5
 70
1
 10
35.640000
 20
1.863438
 10
35.141562
 20
1.863438
 10
35.141562
 20
1.316563
 10
36.138438
 20
1.316563
 10
36.138438
 20
1.863438
  0
LWPOLYLINE
  8
0
 62
7
 90
5
 70
1
 10
35.640000
 20
2.813438
 10
35.141562
 20
2.813438
 10
35.141562
 20
2.266563
 10
36.138438
 20
2.266563
 10
36.138438
 20
2.813438
  0
LWPOLYLINE
  8
0
 62
7
 90
5
 70
1
 10
35.640000
 20
3.763438
 10
35.141562
 20
3.763438
 10
35.141562
 20
3.216563
 10
36.138438
 20
3.216563
 10
36.138438
 20
3.763438
  0
LWPOLYLINE
  8
0
 62
7
 90
5
 70
1
 10
32.940000
 20
3.763438
 10
32.441562
 20
3.763438
 10
32.441562
 20
3.216563
 10
33.438437
 20
3.216563
 10
33.438437
 20
3.763438
  0
LWPOLYLINE
  8
0
 62
7
 90
5
 70
1
 10
32.940000
 20
1.863438
 10
32.441562
 20
1.863438
 10
32.441562
 20
1.316563
 10
33.438437
 20
1.316563
 10
33.438437
 20
1.863438
  0
LWPOLYLINE
  8
0
 62
7
 90
5
 70
1
 10
26.115000
 20
1.863438
 10
25.616562
 20
1.863438
 10
25.616562
 20
1.316563
 10
26.613437
 20
1.316563
 10
26.613437
 20
1.863438
  0
LWPOLYLINE
  8
0
 62
7
 90
5
 70
1
 10
26.115000
 20
2.813438
 10
25.616562
 20
2.813438
 10
25.616562
 20
2.266563
 10
26.613437
 20
2.266563
 10
26.613437
 20
2.813438
  0
LWPOLYLINE
  8
0
 62
7
 90
5
 70
1
 10
26.115000
 20
3.763438
 10
25.616562
 20
3.763438
 10
25.616562
 20
3.216563
 10
26.613437
 20
3.216563
 10
26.613437
 20
3.763438
  0
LWPOLYLINE
  8
0
 62
7
 90
5
 70
1
 10
23.415000
 20
3.763438
 10
22.916562
 20
3.763438
 10
22.916562
 20
3.216563
 10
23.913438
 20
3.216563
 10
23.913438
 20
3.763438
  0
LWPOLYLINE
  8
0
 62
7
 90
5
 70
1
 10
23.415000
 20
1.863438
 10
22.916562
 20
1.863438
 10
22.916562
 20
1.316563
 10
23.913438
 20
1.316563
 10
23.913438
 20
1.863438
  0
LWPOLYLINE
  8
0
 62
7
 90
5
 70
1
 10
30.927000
 20
6.318562
 10
31.325437
 20
6.318562
 10
31.325437
 20
6.665438
 10
30.528562
 20
6.665438
 10
30.528562
 20
6.318562
  0
LWPOLYLINE
  8
0
 62
7
 90
5
 70
1
 10
30.927000
 20
5.668562
 10
31.325437
 20
5.668562
 10
31.325437
 20
6.015437
 10
30.528562
 20
6.015437
 10
30.528562
 20
5.668562
  0
LWPOLYLINE
  8
0
 62
7
 90
5
 70
1
 10
30.927000
 20
5.018562
 10
31.325437
 20
5.018562
 10
31.325437
 20
5.365438
 10
30.528562
 20
5.365438
 10
30.528562
 20
5.018562
  0
LWPOLYLINE
  8
0
 62
7
 90
5
 70
1
 10
32.827000
 20
5.018562
 10
33.225437
 20
5.018562
 10
33.225437
 20
5.365438
 10
32.428562
 20
5.365438
 10
32.428562
 20
5.018562
  0
LWPOLYLINE
  8
0
 62
7
 90
5
 70
1
 10
32.827000
 20
6.318562
 10
33.225437
 20
6.318562
 10
33.225437
 20
6.665438
 10
32.428562
 20
6.665438
 10
32.428562
 20
6.318562
  0
LWPOLYLINE
  8
0
 62
7
 90
5
 70
1
 10
33.975000
 20
6.318562
 10
34.373438
 20
6.318562
 10
34.373438
 20
6.665438
 10
33.576563
 20
6.665438
 10
33.576563
 20
6.318562
  0
LWPOLYLINE
  8
0
 62
7
 90
5
 70
1
 10
33.975000
 20
5.668562
 10
34.373438
 20
5.668562
 10
34.373438
 20
6.015437
 10
33.576563
 20
6.015437
 10
33.576563
 20
5.668562
  0
LWPOLYLINE
  8
0
 62
7
 90
5
 70
1
 10
33.975000
 20
5.018562
 10
34.373438
 20
5.018562
 10
34.373438
 20
5.365438
 10
33.576563
 20
5.365438
 10
33.576563
 20
5.018562
  0
LWPOLYLINE
  8
0
 62
7
 90
5
 70
1
 10
35.875000
 20
5.018562
 10
36.273438
 20
5.018562
 10
36.273438
 20
5.365438
 10
35.476563
 20
5.365438
 10
35.476563
 20
5.018562
  0
LWPOLYLINE
  8
0
 62
7
 90
5
 70
1
 10
35.875000
 20
6.318562
 10
36.273438
 20
6.318562
 10
36.273438
 20
6.665438
 10
35.476563
 20
6.665438
 10
35.476563
 20
6.318562
  0
ENDSEC
  0
EOF
